<?xml version="1.0" encoding="utf-8"?>
<!-- Generator: Adobe Illustrator 21.0.0, SVG Export Plug-In . SVG Version: 6.00 Build 0)  -->
<svg version="1.1" xmlns="http://www.w3.org/2000/svg" xmlns:xlink="http://www.w3.org/1999/xlink" x="0px" y="0px"
	 viewBox="0 0 300 170" style="enable-background:new 0 0 300 170;" xml:space="preserve">
<style type="text/css">
	.st0{display:none;}
	.st1{display:inline;fill:url(#SVGID_1_);}
	.st2{display:inline;fill:url(#SVGID_2_);}
	.st3{display:inline;fill:url(#SVGID_3_);}
	.st4{display:inline;fill:url(#SVGID_4_);}
	.st5{display:inline;fill:url(#SVGID_5_);}
	.st6{display:inline;fill:url(#SVGID_6_);}
	.st7{display:inline;fill:url(#SVGID_7_);}
	.st8{display:inline;fill:url(#SVGID_8_);}
	.st9{display:inline;fill:url(#SVGID_9_);}
	.st10{display:inline;fill:url(#SVGID_10_);}
	.st11{fill:url(#SVGID_11_);}
	.st12{fill:url(#SVGID_12_);}
</style>
<g id="azul" class="st0">
	<linearGradient id="SVGID_1_" gradientUnits="userSpaceOnUse" x1="158.3613" y1="85" x2="300" y2="85">
		<stop  offset="0" style="stop-color:#1B365D"/>
		<stop  offset="1" style="stop-color:#000000"/>
	</linearGradient>
	<path class="st1" d="M300,170L198,0l-32.4,55.2c-9.5,16.3-9.7,36.4-0.3,52.9l0,0c14.4-25.3,51-25.3,65.4,0l18.5,32.3
		C259.5,158.7,279,170,300,170z"/>
	<linearGradient id="SVGID_2_" gradientUnits="userSpaceOnUse" x1="0" y1="85" x2="141.7387" y2="85">
		<stop  offset="0" style="stop-color:#000000"/>
		<stop  offset="1" style="stop-color:#1B365D"/>
	</linearGradient>
	<path class="st2" d="M0,170L102,0l32.5,55.2c9.5,16.3,9.7,36.4,0.3,52.9l0,0c-14.4-25.3-51-25.3-65.4,0l-18.5,32.3
		C40.5,158.7,21,170,0,170z"/>
</g>
<g id="azul__x2B__verde" class="st0">
	<linearGradient id="SVGID_3_" gradientUnits="userSpaceOnUse" x1="158.3613" y1="85" x2="300" y2="85">
		<stop  offset="0" style="stop-color:#00797C"/>
		<stop  offset="0.1758" style="stop-color:#076774"/>
		<stop  offset="0.4969" style="stop-color:#124C67"/>
		<stop  offset="0.782" style="stop-color:#193C60"/>
		<stop  offset="1" style="stop-color:#1B365D"/>
	</linearGradient>
	<path class="st3" d="M300,170L198,0l-32.4,55.2c-9.5,16.3-9.7,36.4-0.3,52.9l0,0c14.4-25.3,51-25.3,65.4,0l18.5,32.3
		C259.5,158.7,279,170,300,170z"/>
	<linearGradient id="SVGID_4_" gradientUnits="userSpaceOnUse" x1="0" y1="85" x2="141.7387" y2="85">
		<stop  offset="0" style="stop-color:#1B365D"/>
		<stop  offset="0.218" style="stop-color:#193C60"/>
		<stop  offset="0.5031" style="stop-color:#124C67"/>
		<stop  offset="0.8242" style="stop-color:#076774"/>
		<stop  offset="1" style="stop-color:#00797C"/>
	</linearGradient>
	<path class="st4" d="M0,170L102,0l32.5,55.2c9.5,16.3,9.7,36.4,0.3,52.9l0,0c-14.4-25.3-51-25.3-65.4,0l-18.5,32.3
		C40.5,158.7,21,170,0,170z"/>
</g>
<g id="opc1" class="st0">
	<linearGradient id="SVGID_5_" gradientUnits="userSpaceOnUse" x1="158.3613" y1="85" x2="300" y2="85">
		<stop  offset="0" style="stop-color:#6AAEAA"/>
		<stop  offset="5.535261e-02" style="stop-color:#5F9D9F"/>
		<stop  offset="0.197" style="stop-color:#477888"/>
		<stop  offset="0.3387" style="stop-color:#345B75"/>
		<stop  offset="0.4789" style="stop-color:#264768"/>
		<stop  offset="0.6169" style="stop-color:#1E3A60"/>
		<stop  offset="0.75" style="stop-color:#1B365D"/>
		<stop  offset="1" style="stop-color:#021D44"/>
	</linearGradient>
	<path class="st5" d="M300,170L198,0l-32.4,55.2c-9.5,16.3-9.7,36.4-0.3,52.9l0,0c14.4-25.3,51-25.3,65.4,0l18.5,32.3
		C259.5,158.7,279,170,300,170z"/>
	<linearGradient id="SVGID_6_" gradientUnits="userSpaceOnUse" x1="0" y1="85" x2="141.7387" y2="85">
		<stop  offset="0" style="stop-color:#021D44"/>
		<stop  offset="0.25" style="stop-color:#1B365D"/>
		<stop  offset="0.3831" style="stop-color:#1E3A60"/>
		<stop  offset="0.5211" style="stop-color:#264768"/>
		<stop  offset="0.6613" style="stop-color:#345B75"/>
		<stop  offset="0.803" style="stop-color:#477888"/>
		<stop  offset="0.9446" style="stop-color:#5F9D9F"/>
		<stop  offset="1" style="stop-color:#6AAEAA"/>
	</linearGradient>
	<path class="st6" d="M0,170L102,0l32.5,55.2c9.5,16.3,9.7,36.4,0.3,52.9l0,0c-14.4-25.3-51-25.3-65.4,0l-18.5,32.3
		C40.5,158.7,21,170,0,170z"/>
</g>
<g id="invert" class="st0">
	<linearGradient id="SVGID_7_" gradientUnits="userSpaceOnUse" x1="158.3613" y1="85" x2="300" y2="85">
		<stop  offset="0" style="stop-color:#1B365D"/>
		<stop  offset="0.1363" style="stop-color:#325A74"/>
		<stop  offset="0.2826" style="stop-color:#477887"/>
		<stop  offset="0.4366" style="stop-color:#569097"/>
		<stop  offset="0.5997" style="stop-color:#61A1A2"/>
		<stop  offset="0.778" style="stop-color:#68ABA8"/>
		<stop  offset="1" style="stop-color:#6AAEAA"/>
	</linearGradient>
	<path class="st7" d="M300,170L198,0l-32.4,55.2c-9.5,16.3-9.7,36.4-0.3,52.9l0,0c14.4-25.3,51-25.3,65.4,0l18.5,32.3
		C259.5,158.7,279,170,300,170z"/>
	<linearGradient id="SVGID_8_" gradientUnits="userSpaceOnUse" x1="0" y1="85" x2="141.7387" y2="85">
		<stop  offset="0" style="stop-color:#6AAEAA"/>
		<stop  offset="0.222" style="stop-color:#68ABA8"/>
		<stop  offset="0.4003" style="stop-color:#61A1A2"/>
		<stop  offset="0.5634" style="stop-color:#569097"/>
		<stop  offset="0.7174" style="stop-color:#477887"/>
		<stop  offset="0.8637" style="stop-color:#325A74"/>
		<stop  offset="1" style="stop-color:#1B365D"/>
	</linearGradient>
	<path class="st8" d="M0,170L102,0l32.5,55.2c9.5,16.3,9.7,36.4,0.3,52.9l0,0c-14.4-25.3-51-25.3-65.4,0l-18.5,32.3
		C40.5,158.7,21,170,0,170z"/>
</g>
<g id="opc2" class="st0">
	<linearGradient id="SVGID_9_" gradientUnits="userSpaceOnUse" x1="250.4439" y1="84.1664" x2="176.2224" y2="127.0182">
		<stop  offset="0" style="stop-color:#1B365D"/>
		<stop  offset="4.422665e-03" style="stop-color:#1D395F"/>
		<stop  offset="6.482655e-02" style="stop-color:#315873"/>
		<stop  offset="0.1318" style="stop-color:#437384"/>
		<stop  offset="0.2089" style="stop-color:#518992"/>
		<stop  offset="0.2989" style="stop-color:#5D9A9D"/>
		<stop  offset="0.4102" style="stop-color:#64A5A4"/>
		<stop  offset="0.5664" style="stop-color:#69ACA9"/>
		<stop  offset="1" style="stop-color:#6AAEAA"/>
	</linearGradient>
	<path class="st9" d="M300,170L198,0l-32.4,55.2c-9.5,16.3-9.7,36.4-0.3,52.9l0,0c14.4-25.3,51-25.3,65.4,0l18.5,32.3
		C259.5,158.7,279,170,300,170z"/>
	<linearGradient id="SVGID_10_" gradientUnits="userSpaceOnUse" x1="123.8526" y1="127.0615" x2="49.5561" y2="84.1664">
		<stop  offset="0.1483" style="stop-color:#6AAEAA"/>
		<stop  offset="0.5176" style="stop-color:#69ACA9"/>
		<stop  offset="0.6506" style="stop-color:#64A5A4"/>
		<stop  offset="0.7454" style="stop-color:#5D9A9D"/>
		<stop  offset="0.8221" style="stop-color:#518992"/>
		<stop  offset="0.8877" style="stop-color:#437384"/>
		<stop  offset="0.9448" style="stop-color:#315873"/>
		<stop  offset="0.9962" style="stop-color:#1D395F"/>
		<stop  offset="1" style="stop-color:#1B365D"/>
	</linearGradient>
	<path class="st10" d="M0,170L102,0l32.5,55.2c9.5,16.3,9.7,36.4,0.3,52.9l0,0c-14.4-25.3-51-25.3-65.4,0l-18.5,32.3
		C40.5,158.7,21,170,0,170z"/>
</g>
<g id="opc3">
	<linearGradient id="SVGID_11_" gradientUnits="userSpaceOnUse" x1="229.1806" y1="170" x2="229.1806" y2="-9.094947e-13">
		<stop  offset="0" style="stop-color:#6AAEAA"/>
		<stop  offset="1" style="stop-color:#1B365D"/>
	</linearGradient>
	<path class="st11" d="M300,170L198,0l-32.4,55.2c-9.5,16.3-9.7,36.4-0.3,52.9l0,0c14.4-25.3,51-25.3,65.4,0l18.5,32.3
		C259.5,158.7,279,170,300,170z"/>
	<linearGradient id="SVGID_12_" gradientUnits="userSpaceOnUse" x1="70.8694" y1="170" x2="70.8694" y2="-9.094947e-13">
		<stop  offset="0" style="stop-color:#6AAEAA"/>
		<stop  offset="1" style="stop-color:#1B365D"/>
	</linearGradient>
	<path class="st12" d="M0,170L102,0l32.5,55.2c9.5,16.3,9.7,36.4,0.3,52.9l0,0c-14.4-25.3-51-25.3-65.4,0l-18.5,32.3
		C40.5,158.7,21,170,0,170z"/>
</g>
</svg>
