<?xml version="1.0" encoding="utf-8"?>
<!-- Generator: Adobe Illustrator 21.0.0, SVG Export Plug-In . SVG Version: 6.00 Build 0)  -->
<svg version="1.1" id="Camada_1" xmlns="http://www.w3.org/2000/svg" xmlns:xlink="http://www.w3.org/1999/xlink" x="0px" y="0px"
	 viewBox="0 0 800 800" style="enable-background:new 0 0 800 800;" xml:space="preserve">
<style type="text/css">
	.st0{fill:#FFFFFF;}
	.st1{fill:#111111;}
</style>
<rect class="st0" width="800" height="800"/>
<path class="st1" d="M700,570L496,230l-64.8,110.4c-19,32.6-19.4,72.8-0.6,105.8l0,0c28.8-50.6,102-50.6,130.8,0l37,64.6
	C619,547.4,658,570,700,570z"/>
<path class="st1" d="M100,570l204-340l65,110.4c19,32.6,19.4,72.8,0.6,105.8l0,0c-28.8-50.6-102-50.6-130.8,0l-37,64.6
	C181,547.4,142,570,100,570z"/>
</svg>
